<?xml version="1.0" encoding="UTF-8" standalone="no"?>
<!DOCTYPE svg PUBLIC "-//W3C//DTD SVG 1.1//EN" "http://www.w3.org/Graphics/SVG/1.1/DTD/svg11.dtd">
<svg width="100%" height="100%" viewBox="0 0 13959 3334" version="1.1" xmlns="http://www.w3.org/2000/svg" xmlns:xlink="http://www.w3.org/1999/xlink" xml:space="preserve" xmlns:serif="http://www.serif.com/" style="fill-rule:evenodd;clip-rule:evenodd;stroke-linejoin:round;stroke-miterlimit:2;">
    <g transform="matrix(4.16667,0,0,4.16667,79.6897,419.354)">
        <path d="M74.115,507.904L521.444,507.904L521.444,469.932L74.115,469.932L74.115,507.904ZM542.869,284.921C520.583,330.447 483.02,396.198 452.699,404.675C438.49,408.652 428.917,403.982 426.76,393.996C426.448,392.554 426.289,391.001 426.295,389.345C426.322,382.998 426.983,376.745 428.994,371.712C430.254,368.556 432.041,365.877 434.547,363.962C434.547,363.962 465.842,363.784 469.07,360.986C472.284,358.221 474.799,339.402 474.198,335.619C473.615,331.858 440.076,338.686 438.303,335.032C436.526,331.39 446.933,310.035 445.078,306.409C444.388,305.055 440.408,304.737 435.697,304.868C427.821,305.089 417.902,306.569 417.902,306.569C414.628,308.148 411.648,333.754 408.457,336.367C405.239,338.998 381.297,335.429 378.304,338.098C375.297,340.768 370.186,361.434 372.058,364.058C373.953,366.701 400.479,362.652 402.676,365.464C405.239,373.851 397.205,388.025 387.364,396.648C380.218,402.901 372.341,406.59 362.541,406.57C360.31,406.556 358.011,406.076 355.696,405.179C346.413,401.582 336.868,391.128 330.341,375.665C327.59,369.147 325.373,361.743 323.941,353.587C323.53,351.25 323.271,348.665 323.133,345.905C321.941,321.959 330.455,284.018 338.953,265.174C359.36,219.975 346.998,222.767 352.647,219.27C371.839,207.347 402.22,197.094 428.946,188.93C434.205,187.323 439.326,185.795 444.19,184.353C445.425,183.986 446.657,183.626 447.889,183.271C474.795,175.503 501.049,170.758 526.125,180.309C569.164,196.709 559.267,251.463 542.869,284.921ZM271.623,353.587C271.531,354.106 271.428,354.614 271.33,355.127C270.223,360.949 268.721,366.375 266.907,371.354C261.613,385.889 253.708,396.6 245.48,402.186C241.309,405.019 237.056,406.544 233.023,406.57C223.212,406.59 215.353,402.901 208.199,396.648C198.355,388.025 190.322,373.851 192.901,365.464C195.077,362.652 221.604,366.701 223.497,364.058C225.378,361.434 220.263,340.768 217.264,338.098C214.258,335.429 190.322,338.998 187.114,336.367C183.9,333.754 180.935,308.148 177.65,306.569C177.65,306.569 174.474,306.096 170.295,305.645C162.662,304.821 151.673,304.071 150.493,306.409C148.633,310.035 159.046,331.39 157.25,335.032C155.483,338.686 121.942,331.858 121.345,335.619C120.768,339.402 123.275,358.221 126.491,360.986C129.711,363.784 161.019,363.962 161.019,363.962C167.518,368.933 169.235,379.019 169.258,389.345C169.317,402.452 159.127,409.227 142.864,404.675C112.55,396.198 74.976,330.447 52.674,284.921C36.3,251.463 26.412,196.709 69.426,180.309C95.656,170.32 123.172,175.965 151.39,184.353C154.609,185.307 157.945,186.302 161.356,187.33C164.625,188.315 167.961,189.333 171.346,190.384C196.853,198.299 224.841,208.044 242.922,219.27C248.566,222.767 236.216,219.975 256.603,265.174C266.091,286.19 275.6,330.971 271.623,353.587ZM515.991,147.376C502.289,146.274 488.997,147.003 475.952,148.925C466.129,150.372 456.449,152.5 446.844,155.035C420.364,162.025 394.448,172.113 367.698,179.697C358.241,182.378 348.677,184.737 338.947,186.539C338.262,186.667 337.58,186.806 336.892,186.927C331.986,187.796 325.387,177.349 319.429,171.39C347.883,149.947 344.018,107.923 311.083,89.779C308.811,87.165 309.638,62.974 310.943,61.897C313.625,59.661 334.621,63.667 337.603,61.083C340.585,58.479 339.995,33.28 338.084,30.868C336.181,28.464 312.491,31.046 311.173,29.419C309.825,27.797 311.821,5.133 309.595,3.345C307.984,2.06 301.423,1.931 297.783,1.956C294.132,1.931 287.55,2.06 285.962,3.345C283.723,5.133 285.726,27.797 284.394,29.419C283.055,31.046 259.399,28.464 257.476,30.868C255.569,33.28 254.982,58.479 257.963,61.083C260.938,63.667 281.954,59.661 284.62,61.897C285.922,62.974 286.747,87.165 284.48,89.779C251.555,107.923 247.683,149.947 276.122,171.39C270.161,177.349 263.56,187.796 258.671,186.927C257.673,186.751 256.681,186.553 255.688,186.365C247.876,184.887 240.17,183.058 232.539,180.992C205.69,173.722 179.757,163.615 153.34,156.283C144.883,153.937 136.374,151.889 127.771,150.297C112.108,147.399 96.129,146.043 79.552,147.376C44.184,150.206 15.275,175.12 9.127,210.917C-1.955,275.347 44.336,324.883 66.823,379.573C73.917,396.827 80.146,420.027 79.034,439.99C79.034,439.99 128.375,439.99 180.446,439.991C195.341,439.992 210.459,439.992 224.712,439.993C256.771,439.995 284.441,439.998 295.301,440L303.154,440C316.075,439.997 343.648,439.995 374.821,439.993C390.166,439.992 406.379,439.992 422.147,439.991C471.542,439.99 516.53,439.99 516.53,439.99C515.404,420.027 521.643,396.827 528.753,379.573C551.221,324.883 597.503,275.347 586.431,210.917C580.288,175.12 551.378,150.206 515.991,147.376ZM385.495,32.509C396.8,43.747 413.518,56.268 429.727,66.777C438.458,72.439 447.042,77.519 454.551,81.497C462.13,85.768 470.289,89.994 479.06,94.024C494.789,101.251 512.51,107.84 532.563,112.863C538.294,114.386 547.595,115.011 555.781,100.041C556.711,98.331 575.768,63.49 576.691,61.776C584.872,46.809 579.308,39.322 574.956,35.308C559.453,20.729 543.882,9.123 528.901,-0.363C521.221,-5.227 513.693,-9.543 506.416,-13.398C499.065,-17.54 490.231,-21.987 480.829,-26.249C463.175,-34.253 443.517,-41.606 427.891,-45.053C422.148,-46.566 412.841,-47.201 404.66,-32.243C403.727,-30.529 384.691,4.327 383.745,6.034C375.574,20.99 381.127,28.488 385.495,32.509ZM135.317,602.73C132.329,608.378 129.583,615.52 129.18,619.378C128.765,623.373 128.083,629.641 138.731,635.288C139.334,635.613 145.576,638.937 151.956,642.333C158.288,645.761 164.534,649.136 165.112,649.461C175.728,655.185 180.62,651.277 183.551,648.545C186.235,646.08 190.242,640.755 193.433,634.938L254.433,519.418L181.082,519.418L135.317,602.73ZM533.767,-10.981C535.261,-14.648 536.615,-18.186 537.127,-20.048C538.178,-23.87 538.992,-29.951 530.322,-34.696C529.833,-34.951 524.746,-37.744 519.565,-40.574C514.417,-43.461 509.347,-46.308 508.863,-46.582C500.25,-51.415 495.563,-47.483 492.918,-44.555C491.583,-43.08 489.226,-39.65 486.893,-36.137C496.166,-31.942 504.829,-27.582 512.127,-23.459C519.165,-19.742 526.405,-15.608 533.767,-10.981ZM473.611,104.344C464.88,100.329 456.73,96.105 449.131,91.815C441.514,87.79 432.911,82.687 424.132,76.965L375.774,164.996C402.184,157.043 427.909,147.183 454.319,140.878L473.611,104.344ZM96.426,106.259C104.747,102.07 112.841,97.754 120.316,93.744C124.467,91.518 128.433,89.383 132.127,87.426C142.95,82.035 156.749,75.073 170.286,67.672C187.775,58.108 204.823,47.808 214.437,39.21C219.476,34.693 226.179,26.56 217.593,9.828C217.11,8.897 212.072,-0.93 206.94,-10.938C201.891,-20.984 196.934,-30.85 196.465,-31.792C188.023,-48.609 177.499,-47.989 170.893,-46.582C157.541,-43.741 137.728,-35.302 118.687,-26.255C105.821,-20.14 93.307,-13.747 83.38,-8.613C79.057,-6.51 74.331,-4.255 69.384,-1.879C62.279,1.532 54.706,5.201 47.114,9.088L7.521,90.281L7.534,90.281L7.521,90.296L96.426,106.259ZM65.18,-12.325C68.73,-14.015 72.151,-15.646 75.362,-17.199C85.893,-22.653 99.079,-29.398 112.72,-35.875C110.486,-39.364 108.243,-42.747 106.951,-44.226C104.357,-47.193 99.736,-51.207 91.037,-46.517C90.543,-46.26 85.444,-43.51 80.24,-40.712C75.004,-37.96 69.88,-35.273 69.394,-35.016C60.644,-30.432 61.352,-24.352 62.333,-20.499C62.778,-18.79 63.9,-15.667 65.18,-12.325ZM134.392,99.077C131.597,100.563 128.662,102.143 125.618,103.784L145.764,141.935C172.154,148.643 197.942,158.612 224.495,166.349L175.76,77.633C161.084,85.701 146.142,93.235 134.392,99.077ZM464.221,602.73L418.453,519.418L345.091,519.418L406.091,634.938C409.29,640.755 413.294,646.08 415.963,648.545C418.894,651.277 423.805,655.185 434.406,649.461C435.001,649.136 441.23,645.761 447.573,642.333C453.946,638.937 460.195,635.613 460.802,635.288C471.446,629.641 470.763,623.373 470.347,619.378C469.943,615.52 467.2,608.378 464.221,602.73ZM3099.05,609.585C3135.8,640.706 3182.67,643.705 3207.8,643.705C3226.93,643.705 3256.93,640.336 3277.92,629.458C3282.05,627.203 3282.43,626.825 3282.43,612.204L3282.43,576.575C3282.43,563.074 3282.43,553.702 3282.8,543.573C3283.56,532.321 3286.18,527.45 3295.18,525.948C3298.93,525.202 3301.18,525.202 3303.42,525.202C3304.55,525.202 3306.05,523.7 3306.05,522.577C3306.05,520.324 3304.55,519.942 3300.81,519.942C3290.68,519.942 3270.06,520.701 3268.56,520.701C3266.68,520.701 3244.55,519.942 3229.55,519.942C3225.8,519.942 3224.3,520.324 3224.3,522.577C3224.3,523.7 3225.8,525.202 3226.93,525.202C3229.92,525.202 3235.56,525.571 3238.17,525.948C3251.67,528.568 3252.43,532.321 3252.43,558.204L3252.43,613.326C3252.43,619.33 3249.8,620.83 3245.68,623.085C3237.05,627.956 3221.68,629.074 3210.05,629.074C3179.67,629.074 3151.93,620.076 3125.67,595.706C3114.04,584.827 3090.79,552.571 3090.79,507.58C3090.79,470.447 3104.3,441.952 3123.43,427.318C3148.54,408.194 3172.54,406.698 3192.43,406.698C3235.18,406.698 3260.29,419.443 3268.56,431.449C3273.81,438.942 3275.67,448.325 3276.06,452.445C3276.06,455.449 3276.43,457.326 3278.31,457.326C3280.56,457.326 3282.05,455.824 3282.05,450.577C3282.05,418.692 3283.93,410.066 3283.93,405.572C3283.93,404.069 3283.18,402.571 3279.8,402.571C3271.56,402.571 3259.92,400.7 3253.18,399.193C3246.8,397.691 3223.56,393.946 3202.55,393.946C3177.42,393.946 3144.41,396.195 3114.8,414.196C3085.53,431.818 3059.67,467.829 3059.67,518.824C3059.67,558.572 3078.8,592.702 3099.05,609.585ZM2999.36,618.955L3000.1,432.189C3000.1,413.065 3000.85,406.698 3011.73,404.439C3015.48,403.693 3018.11,403.693 3019.61,403.693C3021.86,403.693 3023.36,401.816 3023.36,400.7C3023.36,398.822 3020.72,398.446 3017.35,398.446C3003.86,398.446 2992.98,399.193 2989.24,399.193C2985.48,399.193 2969.73,398.446 2954.73,398.446C2950.98,398.446 2948.35,398.822 2948.35,400.7C2948.35,401.816 2948.72,403.693 2950.98,403.693C2953.61,403.693 2961.11,404.069 2967.1,405.195C2977.22,407.072 2979.1,414.196 2979.47,434.817L2982.85,594.579C2972.72,584.075 2937.48,546.193 2904.84,512.45C2853.85,459.943 2805.85,408.951 2800.59,403.693C2797.22,400.325 2791.59,393.946 2787.85,393.946C2785.22,393.946 2783.35,397.315 2783.35,410.066L2783.35,592.702C2783.35,621.578 2782.22,630.208 2773.98,632.45C2769.09,633.953 2763.1,634.329 2760.47,634.329C2758.96,634.329 2757.85,635.447 2757.85,636.957C2757.85,639.205 2759.73,639.575 2763.1,639.575C2778.1,639.575 2791.98,638.46 2794.97,638.46C2797.97,638.46 2811.1,639.575 2829.85,639.575C2833.6,639.575 2835.85,638.834 2835.85,636.957C2835.85,635.447 2834.72,634.329 2833.22,634.329C2830.22,634.329 2822.72,633.953 2816.73,632.45C2807.73,630.208 2804.71,622.323 2803.97,596.069L2800.22,445.69C2810.34,456.95 2847.48,495.944 2885.72,536.074C2920.59,572.444 2968.23,619.33 2971.61,622.323C2989.97,639.205 2993.35,641.828 2996.72,641.828C2998.98,641.828 2999.36,639.949 2999.36,618.955ZM2710.23,634.329C2707.24,634.329 2700.11,633.589 2695.25,632.827C2685.48,631.324 2684.37,625.333 2683.24,615.95C2681.73,602.823 2681.73,577.702 2681.73,546.952L2681.73,490.698C2681.73,441.19 2681.73,432.189 2682.11,422.072C2682.86,410.817 2684.74,406.317 2693.74,404.439C2697.49,403.693 2699.74,403.693 2701.99,403.693C2703.11,403.693 2704.61,402.191 2704.61,401.07C2704.61,399.193 2703.11,398.446 2699.36,398.446C2689.24,398.446 2667.86,399.193 2666.37,399.193C2664.49,399.193 2643.86,398.446 2632.99,398.446C2629.23,398.446 2627.74,399.193 2627.74,401.07C2627.74,402.191 2628.86,403.693 2630.36,403.693C2632.61,403.693 2636.74,404.069 2640.48,404.82C2647.61,406.317 2650.24,411.199 2650.98,422.072C2651.74,432.189 2651.74,441.19 2651.74,490.698L2651.74,546.952C2651.74,577.702 2651.36,602.823 2649.86,615.95C2648.74,625.333 2647.61,631.324 2641.24,632.827C2638.23,633.589 2634.11,634.329 2631.11,634.329C2629.23,634.329 2628.48,635.831 2628.48,636.957C2628.48,638.834 2630.36,639.575 2633.74,639.575C2643.86,639.575 2664.49,638.46 2666.37,638.46C2667.86,638.46 2689.24,639.575 2707.61,639.575C2711.36,639.575 2712.86,638.46 2712.86,636.957C2712.86,635.831 2712.11,634.329 2710.23,634.329ZM2466.9,526.702C2452.27,526.702 2435.4,524.444 2430.53,521.821C2429.03,520.701 2428.27,519.575 2428.27,517.696L2428.27,415.311C2428.27,413.445 2429.4,412.319 2430.9,411.568C2434.27,410.817 2444.78,409.691 2454.53,409.691C2489.78,409.691 2511.53,432.564 2511.53,472.325C2511.53,496.7 2502.9,513.577 2491.65,521.077C2483.77,526.322 2474.77,526.702 2466.9,526.702ZM2512.66,586.329C2531.41,610.329 2543.41,625.702 2557.65,633.202C2565.9,637.702 2574.15,639.575 2592.91,639.575L2613.53,639.575C2619.53,639.575 2621.41,638.834 2621.41,636.957C2621.41,635.831 2620.28,634.329 2618.41,634.329C2616.53,634.329 2613.16,634.329 2606.78,633.202C2598.53,632.083 2587.65,629.074 2570.03,611.078C2550.9,591.2 2528.03,562.329 2501.02,528.568C2531.77,502.322 2541.53,479.448 2541.53,455.824C2541.53,433.695 2526.9,418.316 2518.65,412.319C2501.4,400.325 2478.15,398.446 2457.15,398.446C2447.03,398.446 2419.27,399.193 2415.9,399.193C2414.03,399.193 2391.9,398.446 2376.89,398.446C2373.15,398.446 2371.65,399.193 2371.65,401.07C2371.65,402.191 2373.15,403.693 2374.28,403.693C2377.27,403.693 2382.89,404.069 2385.52,404.439C2396.4,405.941 2398.28,411.199 2399.03,422.072C2399.77,432.189 2399.77,441.19 2399.77,490.698L2399.77,546.952C2399.77,577.702 2399.77,602.823 2397.9,615.95C2396.4,625.333 2395.65,631.324 2389.28,632.827C2386.27,633.589 2382.14,634.329 2379.15,634.329C2377.27,634.329 2376.52,635.831 2376.52,636.957C2376.52,638.834 2378.4,639.575 2381.78,639.575C2391.9,639.575 2414.03,638.46 2414.4,638.46C2415.9,638.46 2436.9,639.575 2454.9,639.575C2458.65,639.575 2460.15,638.46 2460.15,636.957C2460.15,635.831 2459.77,634.329 2457.52,634.329C2454.53,634.329 2447.4,633.589 2442.9,632.827C2432.78,631.324 2430.9,625.333 2429.78,615.95C2428.27,602.823 2428.27,578.077 2428.27,547.324L2428.27,539.83C2428.27,537.954 2429.03,537.2 2430.53,537.2L2472.53,537.954C2474.77,537.954 2475.52,538.327 2477.03,539.83C2484.15,548.446 2498.77,569.076 2512.66,586.329ZM2313.94,596.447C2312.06,596.447 2311.31,597.578 2310.56,601.325C2308.68,614.083 2304.19,619.704 2295.56,623.457C2286.93,626.825 2271.18,626.825 2262.56,626.825C2229.93,626.825 2223.92,622.709 2223.18,601.325C2222.8,594.952 2223.18,557.827 2223.18,546.952L2223.18,520.324C2223.18,519.198 2223.55,518.078 2225.43,518.078C2231.06,518.078 2266.3,518.447 2275.31,519.575C2288.06,521.077 2291.05,524.831 2292.18,529.329C2293.68,533.452 2293.68,536.828 2293.68,539.83C2293.68,541.696 2294.43,542.822 2295.92,542.822C2298.19,542.822 2298.93,539.443 2298.93,536.828C2298.93,534.573 2299.68,522.577 2300.43,516.206C2301.18,505.701 2303.06,500.445 2303.06,498.577C2303.06,496.7 2302.31,495.944 2301.18,495.944C2300.05,495.944 2298.55,497.821 2296.31,500.069C2292.93,503.448 2288.06,503.824 2280.19,504.57C2272.69,505.327 2229.18,505.327 2225.05,505.327C2223.18,505.327 2223.18,504.194 2223.18,501.946L2223.18,415.311C2223.18,413.065 2223.55,411.945 2225.05,411.945C2228.81,411.945 2267.05,412.319 2272.69,413.065C2290.68,415.311 2294.06,417.577 2296.31,422.823C2297.8,426.571 2298.19,431.818 2298.19,434.066C2298.19,436.696 2298.93,438.197 2300.81,438.197C2302.31,438.197 2303.43,436.319 2303.81,434.817C2304.55,431.073 2305.3,416.815 2305.68,413.822C2306.43,404.82 2308.31,401.07 2308.31,398.822C2308.31,397.315 2307.93,395.823 2306.8,395.823C2305.3,395.823 2303.81,396.945 2302.31,397.315C2299.68,397.691 2293.68,398.822 2287.31,399.193C2279.81,399.568 2210.8,399.193 2208.55,399.193C2206.68,399.193 2185.3,398.446 2170.3,398.446C2166.55,398.446 2165.05,399.193 2165.05,401.07C2165.05,402.191 2166.55,403.693 2167.67,403.693C2170.68,403.693 2176.3,404.069 2178.93,404.439C2189.8,405.941 2191.67,411.199 2192.43,422.072C2193.18,432.189 2193.18,441.19 2193.18,490.698L2193.18,546.952C2193.18,577.702 2193.18,602.823 2191.3,615.95C2189.8,625.333 2189.05,631.71 2182.68,632.827C2179.68,633.202 2175.55,634.329 2172.55,634.329C2170.68,634.329 2169.93,635.831 2169.93,636.957C2169.93,638.834 2171.8,639.575 2175.17,639.575C2180.43,639.575 2187.92,639.205 2194.3,638.834C2201.42,638.46 2207.8,638.46 2208.55,638.46C2213.43,638.46 2222.06,638.46 2235.93,639.205C2249.43,639.575 2268.56,640.336 2293.31,640.336C2306.05,640.336 2309.43,640.336 2311.69,632.083C2313.56,625.333 2316.18,603.579 2316.18,601.325C2316.18,599.08 2315.82,596.447 2313.94,596.447ZM2105.09,632.083C2106.97,625.333 2109.59,603.579 2109.59,601.325C2109.59,599.08 2109.22,596.447 2107.35,596.447C2105.47,596.447 2104.72,597.578 2103.97,601.325C2102.09,614.083 2097.59,619.704 2088.97,623.457C2080.34,626.825 2064.59,626.825 2055.97,626.825C2023.34,626.825 2017.33,622.709 2016.59,601.325C2016.21,594.952 2016.59,557.827 2016.59,546.952L2016.59,520.324C2016.59,519.198 2016.96,518.078 2018.83,518.078C2024.47,518.078 2059.71,518.447 2068.72,519.575C2081.47,521.077 2084.47,524.831 2085.59,529.329C2087.09,533.452 2087.09,536.828 2087.09,539.83C2087.09,541.696 2087.84,542.822 2089.34,542.822C2091.6,542.822 2092.34,539.443 2092.34,536.828C2092.34,534.573 2093.09,522.577 2093.84,516.206C2094.59,505.701 2096.47,500.445 2096.47,498.577C2096.47,496.7 2095.72,495.944 2094.59,495.944C2093.46,495.944 2091.97,497.821 2089.72,500.069C2086.34,503.448 2081.47,503.824 2073.59,504.57C2066.09,505.327 2022.59,505.327 2018.46,505.327C2016.59,505.327 2016.59,504.194 2016.59,501.946L2016.59,415.311C2016.59,413.065 2016.96,411.945 2018.46,411.945C2022.21,411.945 2060.46,412.319 2066.09,413.065C2084.1,415.311 2087.47,417.577 2089.72,422.823C2091.21,426.571 2091.6,431.818 2091.6,434.066C2091.6,436.696 2092.34,438.197 2094.21,438.197C2095.72,438.197 2096.84,436.319 2097.22,434.817C2097.97,431.073 2098.72,416.815 2099.1,413.822C2099.85,404.82 2101.71,401.07 2101.71,398.822C2101.71,397.315 2101.34,395.823 2100.21,395.823C2098.72,395.823 2097.22,396.945 2095.72,397.315C2093.09,397.691 2087.09,398.822 2080.72,399.193C2073.22,399.568 2004.21,399.193 2001.96,399.193C2000.09,399.193 1978.71,398.446 1963.71,398.446C1959.95,398.446 1958.46,399.193 1958.46,401.07C1958.46,402.191 1959.95,403.693 1961.08,403.693C1964.09,403.693 1969.72,404.069 1972.34,404.439C1983.21,405.941 1985.09,411.199 1985.84,422.072C1986.58,432.189 1986.58,441.19 1986.58,490.698L1986.58,546.952C1986.58,577.702 1986.58,602.823 1984.72,615.95C1983.21,625.333 1982.46,631.71 1976.09,632.827C1973.09,633.202 1968.97,634.329 1965.96,634.329C1964.09,634.329 1963.34,635.831 1963.34,636.957C1963.34,638.834 1965.21,639.575 1968.59,639.575C1973.84,639.575 1981.34,639.205 1987.71,638.834C1994.83,638.46 2001.22,638.46 2001.96,638.46C2006.84,638.46 2015.46,638.46 2029.34,639.205C2042.85,639.575 2061.96,640.336 2086.71,640.336C2099.47,640.336 2102.84,640.336 2105.09,632.083ZM1724.88,634.329C1721.87,634.329 1714.37,633.953 1708.38,632.45C1699.38,630.208 1696.38,622.323 1695.63,596.069L1691.88,445.69C1702.01,456.95 1739.13,495.944 1777.38,536.074C1812.26,572.444 1859.89,619.33 1863.26,622.323C1881.64,639.205 1885.01,641.828 1888.38,641.828C1890.64,641.828 1891.01,639.949 1891.01,618.955L1891.76,432.189C1891.76,413.065 1892.5,406.698 1903.38,404.439C1907.14,403.693 1909.77,403.693 1911.27,403.693C1913.51,403.693 1915.01,401.816 1915.01,400.7C1915.01,398.822 1912.39,398.446 1909.02,398.446C1895.51,398.446 1884.64,399.193 1880.88,399.193C1877.13,399.193 1861.38,398.446 1846.38,398.446C1842.64,398.446 1840.01,398.822 1840.01,400.7C1840.01,401.816 1840.38,403.693 1842.64,403.693C1845.25,403.693 1852.76,404.069 1858.76,405.195C1868.89,407.072 1870.77,414.196 1871.13,434.817L1874.51,594.579C1864.38,584.075 1829.13,546.193 1796.5,512.45C1745.51,459.943 1697.51,408.951 1692.25,403.693C1688.87,400.325 1683.25,393.946 1679.5,393.946C1676.88,393.946 1675,397.315 1675,410.066L1675,592.702C1675,621.578 1673.87,630.208 1665.62,632.45C1660.75,633.953 1654.76,634.329 1652.13,634.329C1650.62,634.329 1649.5,635.447 1649.5,636.957C1649.5,639.205 1651.38,639.575 1654.76,639.575C1669.75,639.575 1683.63,638.46 1686.63,638.46C1689.62,638.46 1702.76,639.575 1721.51,639.575C1725.25,639.575 1727.51,638.834 1727.51,636.957C1727.51,635.447 1726.38,634.329 1724.88,634.329ZM1599.27,639.575C1603.02,639.575 1604.52,638.46 1604.52,636.957C1604.52,635.831 1603.77,634.329 1601.9,634.329C1598.89,634.329 1591.78,633.589 1586.9,632.827C1577.14,631.324 1576.02,625.333 1574.89,615.95C1573.4,602.823 1573.4,577.702 1573.4,546.952L1573.4,490.698C1573.4,441.19 1573.4,432.189 1573.78,422.072C1574.53,410.817 1576.39,406.317 1585.4,404.439C1589.15,403.693 1591.39,403.693 1593.65,403.693C1594.77,403.693 1596.27,402.191 1596.27,401.07C1596.27,399.193 1594.77,398.446 1591.03,398.446C1580.9,398.446 1559.52,399.193 1558.03,399.193C1556.15,399.193 1535.52,398.446 1524.64,398.446C1520.89,398.446 1519.39,399.193 1519.39,401.07C1519.39,402.191 1520.52,403.693 1522.02,403.693C1524.26,403.693 1528.39,404.069 1532.15,404.82C1539.27,406.317 1541.89,411.199 1542.64,422.072C1543.39,432.189 1543.39,441.19 1543.39,490.698L1543.39,546.952C1543.39,577.702 1543.02,602.823 1541.53,615.95C1540.4,625.333 1539.27,631.324 1532.9,632.827C1529.9,633.589 1525.76,634.329 1522.76,634.329C1520.89,634.329 1520.14,635.831 1520.14,636.957C1520.14,638.834 1522.02,639.575 1525.39,639.575C1535.52,639.575 1556.15,638.46 1558.03,638.46C1559.52,638.46 1580.9,639.575 1599.27,639.575ZM1260.69,609.585C1297.45,640.706 1344.32,643.705 1369.45,643.705C1388.57,643.705 1418.57,640.336 1439.57,629.458C1443.7,627.203 1444.08,626.825 1444.08,612.204L1444.08,576.575C1444.08,563.074 1444.08,553.702 1444.45,543.573C1445.2,532.321 1447.83,527.45 1456.82,525.948C1460.58,525.202 1462.83,525.202 1465.07,525.202C1466.2,525.202 1467.7,523.7 1467.7,522.577C1467.7,520.324 1466.2,519.942 1462.46,519.942C1452.33,519.942 1431.7,520.701 1430.19,520.701C1428.33,520.701 1406.19,519.942 1391.19,519.942C1387.45,519.942 1385.95,520.324 1385.95,522.577C1385.95,523.7 1387.45,525.202 1388.57,525.202C1391.57,525.202 1397.19,525.571 1399.82,525.948C1413.33,528.568 1414.08,532.321 1414.08,558.204L1414.08,613.326C1414.08,619.33 1411.45,620.83 1407.32,623.085C1398.69,627.956 1383.32,629.074 1371.7,629.074C1341.32,629.074 1313.56,620.076 1287.32,595.706C1275.69,584.827 1252.44,552.571 1252.44,507.58C1252.44,470.447 1265.94,441.952 1285.07,427.318C1310.19,408.194 1334.19,406.698 1354.07,406.698C1396.82,406.698 1421.96,419.443 1430.19,431.449C1435.45,438.942 1437.33,448.325 1437.71,452.445C1437.71,455.449 1438.08,457.326 1439.95,457.326C1442.2,457.326 1443.7,455.824 1443.7,450.577C1443.7,418.692 1445.57,410.066 1445.57,405.572C1445.57,404.069 1444.83,402.571 1441.45,402.571C1433.2,402.571 1421.58,400.7 1414.82,399.193C1408.45,397.691 1385.2,393.946 1364.2,393.946C1339.06,393.946 1306.07,396.195 1276.44,414.196C1247.19,431.818 1221.32,467.829 1221.32,518.824C1221.32,558.572 1240.44,592.702 1260.69,609.585ZM1158.37,641.828C1160.62,641.828 1160.99,639.949 1160.99,618.955L1161.74,432.189C1161.74,413.065 1162.49,406.698 1173.36,404.439C1177.12,403.693 1179.74,403.693 1181.25,403.693C1183.49,403.693 1184.99,401.816 1184.99,400.7C1184.99,398.822 1182.37,398.446 1178.99,398.446C1165.5,398.446 1154.62,399.193 1150.87,399.193C1147.12,399.193 1131.37,398.446 1116.37,398.446C1112.61,398.446 1109.99,398.822 1109.99,400.7C1109.99,401.816 1110.37,403.693 1112.61,403.693C1115.24,403.693 1122.74,404.069 1128.74,405.195C1138.87,407.072 1140.74,414.196 1141.12,434.817L1144.49,594.579C1134.37,584.075 1099.11,546.193 1066.48,512.45C1015.49,459.943 967.492,408.951 962.232,403.693C958.862,400.325 953.232,393.946 949.482,393.946C946.862,393.946 944.982,397.315 944.982,410.066L944.982,592.702C944.982,621.578 943.852,630.208 935.602,632.45C930.732,633.953 924.732,634.329 922.102,634.329C920.612,634.329 919.492,635.447 919.492,636.957C919.492,639.205 921.352,639.575 924.732,639.575C939.732,639.575 953.602,638.46 956.612,638.46C959.602,638.46 972.732,639.575 991.492,639.575C995.232,639.575 997.482,638.834 997.482,636.957C997.482,635.447 996.362,634.329 994.872,634.329C991.862,634.329 984.352,633.953 978.372,632.45C969.352,630.208 966.362,622.323 965.612,596.069L961.872,445.69C971.982,456.95 1009.12,495.944 1047.36,536.074C1082.24,572.444 1129.87,619.33 1133.25,622.323C1151.61,639.205 1154.99,641.828 1158.37,641.828ZM860.272,630.948C862.152,623.085 865.162,597.578 865.162,594.579C865.162,591.95 865.162,588.951 862.902,588.951C861.032,588.951 860.272,590.453 859.522,594.579C856.912,609.958 852.402,617.451 842.652,621.578C832.902,625.702 816.402,625.702 806.652,625.702C769.902,625.702 764.282,620.83 763.152,594.952C762.782,587.08 763.152,543.573 763.152,530.817L763.152,497.821C763.152,496.324 763.902,495.198 765.772,495.198C772.142,495.198 809.272,495.944 819.412,497.077C834.032,498.577 837.402,504.952 838.902,510.197C840.402,515.074 840.402,518.824 840.402,522.577C840.402,524.444 841.162,525.948 843.022,525.948C845.652,525.948 845.652,521.821 845.652,518.824C845.652,516.206 846.402,502.322 847.152,494.823C848.282,482.441 850.162,476.069 850.162,473.817C850.162,471.567 849.412,470.823 848.282,470.823C846.782,470.823 845.282,472.7 842.652,475.694C839.282,479.448 834.032,480.199 825.032,480.95C816.402,481.696 770.282,481.696 765.402,481.696C763.522,481.696 763.152,480.564 763.152,477.947L763.152,374.447C763.152,371.819 763.902,370.693 765.402,370.693C769.532,370.693 810.402,371.067 816.782,371.819C837.032,374.073 840.772,378.572 843.402,384.565C845.282,389.065 845.652,395.443 845.652,398.072C845.652,401.07 846.402,402.942 848.652,402.942C850.162,402.942 850.912,400.7 851.282,398.822C852.022,394.321 852.782,377.815 853.152,374.073C854.282,363.569 856.162,359.073 856.162,356.44C856.162,354.566 855.782,353.066 854.652,353.066C852.782,353.066 851.282,354.566 849.412,354.943C846.402,355.693 840.402,356.44 833.282,356.82C824.642,357.195 750.022,357.195 747.402,357.195L732.032,356.44C723.772,356.064 713.652,356.064 705.032,356.064C700.892,356.064 699.022,356.82 699.022,359.073C699.022,360.564 700.522,361.32 702.022,361.32C705.402,361.32 711.772,361.69 714.782,362.443C727.152,365.06 730.152,371.067 730.902,383.818C731.642,395.823 731.642,406.317 731.642,464.821L731.642,530.817C731.642,566.83 731.642,596.447 729.762,612.204C728.272,623.085 726.402,631.324 718.902,632.827C715.522,633.589 711.022,634.329 707.642,634.329C705.402,634.329 704.652,635.447 704.652,636.581C704.652,638.834 706.522,639.575 710.652,639.575C716.272,639.575 724.892,638.834 732.392,638.834C740.272,638.46 746.652,638.46 747.402,638.46C753.032,638.46 762.032,638.834 776.652,639.575C791.272,639.949 811.902,640.706 840.032,640.706C854.652,640.706 857.662,640.706 860.272,630.948ZM2585.4,151.813L2518.64,151.813C2517.52,151.813 2517.14,151.064 2517.52,149.559L2548.27,62.174C2550.15,57.303 2552.02,57.303 2553.89,62.174L2586.52,149.559C2586.9,151.064 2586.9,151.813 2585.4,151.813ZM2688.9,251.193C2688.9,249.316 2686.65,248.565 2684.77,248.565C2681.41,248.565 2676.52,248.189 2671.65,246.686C2664.53,244.444 2655.53,240.313 2643.52,211.814C2623.28,163.438 2570.4,31.813 2564.4,18.305C2561.02,11.181 2559.89,6.68 2556.52,6.68C2554.27,6.68 2552.77,8.557 2548.64,19.056L2471.02,218.561C2464.64,234.68 2458.27,245.946 2443.27,247.825C2440.64,248.189 2435.77,248.565 2433.52,248.565C2432.01,248.565 2430.51,249.683 2430.51,251.193C2430.51,253.07 2432.77,253.811 2436.89,253.811C2450.39,253.811 2466.89,252.696 2470.26,252.696C2474.02,252.696 2492.02,253.811 2499.9,253.811C2502.89,253.811 2504.77,253.07 2504.77,251.193C2504.77,249.683 2504.02,248.565 2501.39,248.565L2498.4,248.565C2492.77,248.565 2487.14,246.319 2487.14,239.938C2487.14,234.312 2489.02,226.44 2492.02,218.561L2510.77,167.561C2511.52,165.686 2512.64,164.941 2514.15,164.941L2590.27,164.941C2592.14,164.941 2592.52,165.315 2593.27,166.807L2622.9,239.938C2625.14,245.184 2621.78,247.825 2619.9,248.565C2618.4,249.316 2617.65,249.316 2617.65,250.817C2617.65,252.696 2622.9,252.696 2629.27,253.07C2652.15,253.811 2676.52,253.811 2681.41,253.811C2685.15,253.811 2688.9,253.07 2688.9,251.193ZM2331.17,17.929C2333.42,17.929 2337.54,18.305 2341.29,19.056C2348.42,20.553 2351.04,25.435 2351.79,36.308C2352.54,46.425 2352.54,55.426 2352.54,104.934L2352.54,161.188C2352.54,191.938 2352.16,217.059 2350.67,230.186C2349.55,239.569 2348.42,245.56 2342.05,247.063C2339.04,247.825 2334.91,248.565 2331.92,248.565C2330.04,248.565 2329.29,250.067 2329.29,251.193C2329.29,253.07 2331.17,253.811 2334.55,253.811C2344.67,253.811 2365.3,252.696 2367.17,252.696C2368.67,252.696 2390.05,253.811 2408.41,253.811C2412.17,253.811 2413.67,252.696 2413.67,251.193C2413.67,250.067 2412.92,248.565 2411.04,248.565C2408.04,248.565 2400.93,247.825 2396.05,247.063C2386.29,245.56 2385.17,239.569 2384.04,230.186C2382.55,217.059 2382.55,191.938 2382.55,161.188L2382.55,104.934C2382.55,55.426 2382.55,46.425 2382.92,36.308C2383.67,25.053 2385.55,20.553 2394.54,18.675C2398.3,17.929 2400.55,17.929 2402.79,17.929C2403.92,17.929 2405.42,16.427 2405.42,15.306C2405.42,13.429 2403.92,12.682 2400.17,12.682C2390.05,12.682 2368.67,13.429 2367.17,13.429C2365.3,13.429 2344.67,12.682 2333.8,12.682C2330.04,12.682 2328.54,13.429 2328.54,15.306C2328.54,16.427 2329.67,17.929 2331.17,17.929ZM2202.58,243.31C2196.58,243.31 2182.7,242.938 2173.7,238.811C2163.58,233.94 2163.58,230.186 2162.45,214.811C2162.08,209.942 2162.08,171.692 2162.08,146.931L2162.08,129.31C2162.08,127.813 2162.83,127.063 2163.95,127.063C2169.2,127.063 2185.7,127.063 2189.83,127.813C2197.7,129.31 2208.2,128.933 2219.46,136.057C2245.33,152.563 2250.95,179.932 2250.95,194.192C2250.95,235.066 2224.33,243.31 2202.58,243.31ZM2162.08,27.681C2162.08,25.804 2163.2,25.053 2166.2,24.302C2171.45,23.187 2179.32,22.8 2183.08,22.8C2216.08,22.8 2229.58,49.81 2229.58,74.179C2229.58,89.555 2223.96,100.433 2216.83,108.314C2210.07,115.807 2202.95,116.558 2184.58,116.558C2172.2,116.558 2166.2,115.436 2164.32,115.061C2162.83,114.681 2162.08,113.93 2162.08,111.682L2162.08,27.681ZM2281.71,183.688C2281.71,147.688 2248.71,124.808 2223.58,117.309C2240.46,102.31 2256.96,86.561 2256.96,61.434C2256.96,44.552 2242.7,12.682 2187.58,12.682C2172.2,12.682 2156.83,13.429 2148.95,13.429C2147.08,13.429 2125.7,12.682 2110.7,12.682C2106.95,12.682 2105.45,13.429 2105.45,15.306C2105.45,16.427 2106.95,17.178 2108.07,17.178C2111.08,17.178 2116.7,17.554 2119.32,17.929C2130.2,19.431 2132.07,25.435 2132.83,36.308C2133.57,46.425 2133.57,55.426 2133.57,104.934L2133.57,161.188C2133.57,191.938 2133.57,217.059 2131.7,230.186C2130.2,239.569 2129.45,246.686 2123.07,247.825C2120.08,248.189 2115.95,249.316 2112.95,249.316C2111.08,249.316 2110.32,250.067 2110.32,251.193C2110.32,253.07 2112.2,253.811 2115.57,253.811C2120.83,253.811 2128.7,253.441 2135.45,253.07C2142.2,253.07 2148.2,252.696 2148.95,252.696C2150.45,252.696 2159.82,253.07 2170.33,253.441C2180.83,254.185 2192.83,254.572 2198.83,254.572C2255.08,254.572 2281.71,219.309 2281.71,183.688ZM2068.38,253.811C2072.14,253.811 2075.14,252.696 2075.14,250.817C2075.14,249.316 2074.01,248.565 2072.51,248.565C2069.13,248.565 2060.51,248.565 2051.13,245.56C2037.64,241.061 2035.38,223.821 2034.26,212.559L2011.75,16.807C2011,10.805 2009.13,8.182 2006.88,8.182C2004.63,8.182 2003.13,10.431 2001.63,13.429L1905.63,211.07L1805.87,13.058C1804,9.304 1801.37,8.182 1799.12,8.182C1797.25,8.182 1795.75,10.431 1795.38,13.804L1771.37,221.942C1769.87,233.94 1769.5,245.56 1758.62,247.438C1753.75,248.189 1751.5,248.565 1748.87,248.565C1746.99,248.565 1745.49,249.683 1745.49,250.817C1745.49,253.07 1747.75,253.811 1751.12,253.811C1760.12,253.811 1775.87,252.696 1778.88,252.696C1781.5,252.696 1797.25,253.811 1809.62,253.811C1813.37,253.811 1815.62,253.07 1815.62,250.817C1815.62,249.683 1814.13,248.565 1813,248.565C1810.75,248.565 1805.87,248.189 1800.25,246.686C1795.38,245.56 1792.37,242.565 1792.37,237.693C1792.37,232.434 1792.37,226.44 1792.75,221.561L1805.5,77.553L1807,77.553C1812.63,90.681 1839.25,144.314 1849,164.557C1857.25,181.811 1879,222.688 1887.63,238.437C1894,250.067 1895.88,253.07 1898.88,253.07C1901.88,253.07 1903.75,250.067 1910.5,236.188L1990.01,73.441L1990.76,73.441L2006.51,234.68C2007.26,240.69 2006.88,245.56 2005.01,245.946C2003.51,246.319 2002.76,247.438 2002.76,248.565C2002.76,250.067 2004.26,251.193 2012.13,251.938C2024.14,253.07 2060.89,253.811 2068.38,253.811ZM1721.55,15.306C1721.55,13.429 1720.05,12.682 1716.3,12.682C1706.55,12.682 1690.8,13.429 1688.55,13.429C1686.67,13.429 1667.54,12.682 1652.92,12.682C1649.17,12.682 1647.67,13.429 1647.67,15.306C1647.67,16.427 1648.8,17.929 1650.3,17.929C1653.29,17.929 1658.92,18.305 1661.55,18.675C1672.42,20.177 1674.3,26.181 1674.67,36.308C1675.05,46.425 1675.42,55.426 1675.42,104.934L1675.42,145.053C1675.42,177.685 1672.04,203.932 1656.67,222.315C1645.42,235.814 1625.92,244.813 1605.67,244.813C1586.92,244.813 1572.67,242.192 1556.54,227.562C1542.29,214.811 1532.16,195.692 1532.16,149.559L1532.16,104.934C1532.16,55.426 1532.16,46.425 1532.92,36.308C1533.66,25.804 1535.54,20.177 1544.17,18.675C1548.29,17.929 1550.17,17.929 1552.42,17.929C1553.92,17.929 1555.42,16.427 1555.42,15.306C1555.42,13.429 1553.54,12.682 1549.79,12.682C1540.04,12.682 1519.41,13.429 1516.42,13.429C1513.42,13.429 1493.54,12.682 1478.54,12.682C1474.78,12.682 1473.29,13.429 1473.29,15.306C1473.29,16.427 1474.78,17.929 1475.91,17.929C1478.91,17.929 1484.54,18.305 1487.17,18.675C1498.04,20.177 1499.91,26.181 1500.66,36.308C1501.42,46.425 1501.42,55.426 1501.42,104.934L1501.42,151.813C1501.42,198.311 1514.16,220.44 1530.29,235.443C1553.54,257.19 1588.04,257.941 1598.92,257.941C1618.42,257.941 1643.92,255.312 1667.92,234.68C1694.18,212.183 1698.67,173.559 1698.67,139.067L1698.67,104.934C1698.67,55.426 1698.3,46.425 1699.05,36.308C1699.8,25.804 1701.67,20.553 1710.68,18.675C1714.8,17.929 1716.67,17.929 1718.92,17.929C1720.43,17.929 1721.55,16.427 1721.55,15.306ZM1334.2,252.696C1343.95,252.696 1355.2,253.07 1370.2,253.441C1385.57,254.185 1403.95,254.572 1427.57,254.572C1445.2,254.572 1446.32,253.441 1448.58,245.946C1451.2,236.559 1453.45,217.443 1453.45,214.062C1453.45,210.683 1452.7,209.188 1451.2,209.188C1449.32,209.188 1448.2,211.07 1447.83,213.316C1446.7,219.694 1444.07,226.44 1439.95,231.312C1432.07,240.69 1417.45,241.061 1400.2,241.061C1374.32,241.061 1361.57,238.811 1356.32,233.566C1350.32,227.934 1349.57,208.815 1349.57,161.936L1349.57,104.934C1349.57,55.426 1349.57,46.425 1349.95,36.308C1350.7,25.053 1352.57,20.177 1362.32,18.305C1366.07,17.929 1370.94,17.554 1373.19,17.554C1374.32,17.554 1375.82,16.427 1375.82,15.306C1375.82,13.429 1373.95,12.682 1370.57,12.682C1360.45,12.682 1335.7,13.429 1334.2,13.429C1332.32,13.429 1311.69,12.682 1296.69,12.682C1292.94,12.682 1291.44,13.429 1291.44,15.306C1291.44,16.427 1292.94,17.929 1294.07,17.929C1297.07,17.929 1302.69,18.305 1305.32,18.675C1316.19,20.177 1318.07,25.435 1318.82,36.308C1319.57,46.425 1319.57,55.426 1319.57,104.934L1319.57,161.188C1319.57,191.938 1319.57,217.059 1317.7,230.186C1316.19,239.569 1315.44,245.56 1309.07,247.063C1306.07,247.825 1301.94,248.565 1298.94,248.565C1297.07,248.565 1296.32,250.067 1296.32,251.193C1296.32,253.07 1298.2,253.811 1301.57,253.811C1306.82,253.811 1313.94,253.441 1320.69,253.07C1327.07,252.696 1332.69,252.696 1334.2,252.696ZM1023.36,124.064C1023.36,54.68 1063.11,20.177 1118.24,20.177C1170.37,20.177 1216.87,60.315 1216.87,136.813C1216.87,229.065 1157.24,244.813 1127.61,244.813C1067.99,244.813 1023.36,198.311 1023.36,124.064ZM1250.62,127.813C1250.62,53.549 1194.37,8.182 1120.11,8.182C1028.99,8.182 989.236,81.304 989.236,132.683C989.236,190.059 1027.86,257.941 1118.24,257.941C1197.74,257.941 1250.62,199.063 1250.62,127.813ZM941.286,239.569C945.033,226.818 949.534,194.192 949.534,191.564C949.534,188.559 948.785,185.936 946.911,185.936C944.661,185.936 943.909,187.444 943.162,191.564C942.035,198.311 937.159,214.811 929.284,223.06C914.282,238.437 892.157,241.816 864.031,241.816C783.776,241.816 728.653,176.187 728.653,104.558C728.653,66.304 735.027,32.928 762.401,6.68C775.527,-6.07 798.777,-20.704 848.654,-20.704C881.657,-20.704 910.536,-10.57 923.662,0.678C933.412,8.928 939.409,24.302 939.409,38.93C939.409,44.182 939.784,46.8 942.41,46.8C944.661,46.8 945.412,44.552 945.785,38.93C946.16,33.303 946.16,12.682 946.911,0.301C947.662,-13.195 948.785,-17.695 948.785,-20.704C948.785,-22.947 948.035,-24.444 943.909,-24.819C931.91,-25.575 919.907,-27.823 905.656,-30.447C887.281,-33.824 866.282,-34.946 851.28,-34.946C793.526,-34.946 759.402,-17.324 736.899,5.174C703.522,38.561 694.9,82.436 694.9,107.557C694.9,143.186 703.899,185.936 740.276,218.561C769.903,245.184 807.776,259.069 864.031,259.069C888.033,259.069 916.532,256.438 931.533,250.442C938.286,247.438 939.035,246.686 941.286,239.569Z" style="fill:rgb(0,88,168);fill-rule:nonzero;"/>
    </g>
</svg>
