<?xml version="1.0" encoding="UTF-8"?><svg id="_层_1" xmlns="http://www.w3.org/2000/svg" viewBox="0 0 623.62 151.77"><defs><style>.cls-1{fill:#939598;}.cls-2{fill:#b30838;}</style></defs><path class="cls-2" d="M336.36,.06V32.58h-7.79l.51-23.17,.09-3.27-.28,1.15c-.41,1.85-.46,2.07-.83,3.46l-6.13,21.83h-6.99l-5.9-20.92-1.43-5.8c.13,2.58,.13,3.13,.27,6.21l.41,20.51h-7.87V.06h11.88l4.98,18.24,1.15,5.2c.46-2.25,.51-2.49,.88-4.01L324.52,.06h11.84Z"/><path class="cls-2" d="M342.58,15.35c.13-1.67,.37-3.64,2.53-5.35,2.21-1.75,5.07-2.12,7.87-2.12,2.95,0,10.09,.69,10.09,6.91v14.01c0,2.57,.15,2.95,.69,3.78h-6.96v-2.22c-1.79,1.34-3.83,2.86-7.37,2.86-5.52,0-7.88-3.97-7.88-7.32,0-3.87,3.1-6.09,5.08-6.91,1.93-.84,6.49-1.67,9.48-2.22v-1.29c-.09-1.11-.18-2.95-2.72-2.95-3.13,0-3.55,1.94-3.73,2.81h-7.09Zm8.98,7.22c-1.19,.46-3.05,1.15-3.05,3,0,1.15,1.01,2.45,2.68,2.45,.87,0,1.71-.33,2.44-.79,2.35-1.47,2.44-3.69,2.49-6.18l-4.56,1.52Z"/><path class="cls-2" d="M370.77,24.47c1.93,1.89,4.34,3.31,7.01,3.31,1.69,0,4.29-.55,4.29-2.34,0-.84-.51-1.16-.93-1.39-1.06-.55-2.72-.68-4.11-.93-1.06-.18-2.16-.4-3.23-.72-1.47-.43-2.94-1.02-4-2.08-1.07-1.06-1.8-2.72-1.8-4.51,0-3.97,3.4-8.07,10.14-8.07,5.67,0,9.08,2.44,10.73,3.58l-4.37,4.06c-2.27-1.75-4.39-2.39-6.04-2.39-2.77,0-3.4,1.1-3.4,1.79,0,1.39,1.51,1.66,3.81,2.08,4.84,.87,10.47,2.16,10.47,7.87s-5.71,8.43-11.38,8.43c-6.68,0-10.14-3.23-11.66-4.65l4.47-4.06Z"/><path class="cls-2" d="M394.77,24.47c1.94,1.89,4.34,3.31,7.01,3.31,1.71,0,4.29-.55,4.29-2.34,0-.84-.51-1.16-.93-1.39-1.06-.55-2.72-.68-4.11-.93-1.06-.18-2.16-.4-3.22-.72-1.47-.43-2.95-1.02-4.01-2.08-1.06-1.06-1.8-2.72-1.8-4.51,0-3.97,3.41-8.07,10.14-8.07,5.67,0,9.08,2.44,10.73,3.58l-4.37,4.06c-2.25-1.75-4.37-2.39-6.03-2.39-2.77,0-3.41,1.1-3.41,1.79,0,1.39,1.51,1.66,3.83,2.08,4.84,.87,10.45,2.16,10.45,7.87s-5.71,8.43-11.38,8.43c-6.68,0-10.13-3.23-11.65-4.65l4.46-4.06Z"/><path class="cls-2" d="M417.44,15.35c.13-1.67,.37-3.64,2.53-5.35,2.21-1.75,5.07-2.12,7.87-2.12,2.95,0,10.09,.69,10.09,6.91v14.01c0,2.57,.13,2.95,.69,3.78h-6.96v-2.22c-1.79,1.34-3.83,2.86-7.37,2.86-5.53,0-7.88-3.97-7.88-7.32,0-3.87,3.1-6.09,5.07-6.91,1.94-.84,6.51-1.67,9.5-2.22v-1.29c-.1-1.11-.2-2.95-2.73-2.95-3.13,0-3.55,1.94-3.73,2.81h-7.09Zm8.98,7.22c-1.19,.46-3.05,1.15-3.05,3,0,1.15,1.02,2.45,2.68,2.45,.87,0,1.71-.33,2.44-.79,2.35-1.47,2.45-3.69,2.5-6.18l-4.57,1.52Z"/><path class="cls-2" d="M465.4,26.91c-.88,1.38-1.84,2.9-3.78,4.28-1.84,1.29-4.19,2.17-6.91,2.17-4.62,0-11.94-2.77-11.94-12.57,0-7.01,4.06-12.9,12.07-12.9,2.67,0,7.23,.73,10.27,5.76l-5.25,2.99c-.41-.86-.88-1.69-2.02-2.52-.69-.46-1.57-.84-2.68-.84-3.81,0-5.11,4.39-5.11,7.29,0,3.18,1.57,7.19,5.34,7.19,.37,0,2.12,0,3.59-1.67,.61-.68,.83-1.23,1.07-1.93l5.34,2.77Z"/><path class="cls-2" d="M473.61,0V11.05c1.01-1,3.09-3.17,6.91-3.17,1.75,0,3.69,.5,5.12,1.71,2.12,1.79,2.49,4.04,2.49,7.18v15.82h-7.05v-12.59c0-1.93-.04-2.85-.32-3.68-.68-2.17-2.58-2.4-3.31-2.4-1.24,0-2.3,.6-2.9,1.39-.93,1.23-.93,3.22-.93,5.29v11.99h-7.09V0h7.09Z"/><path class="cls-2" d="M508.72,8.52h7.09v24.05h-7.09v-2.3c-.69,.78-1.11,1.24-2.4,1.89-1.43,.74-2.99,1.11-4.56,1.11s-4.47-.23-6.13-2.53c-1.24-1.76-1.47-3.18-1.47-7.09V8.52h7.14v14.94c0,1.05,0,2.11,.55,2.85,.41,.55,1.39,1.19,2.81,1.19,.41,0,1.39,0,2.45-.6,1.51-.93,1.56-2.12,1.61-3.41V8.52Z"/><path class="cls-2" d="M523.41,24.47c1.94,1.89,4.34,3.31,7.01,3.31,1.71,0,4.28-.55,4.28-2.34,0-.84-.5-1.16-.91-1.39-1.06-.55-2.72-.68-4.09-.93-1.07-.18-2.17-.4-3.23-.72-1.47-.43-2.95-1.02-4.01-2.08-1.06-1.06-1.8-2.72-1.8-4.51,0-3.97,3.41-8.07,10.14-8.07,5.68,0,9.08,2.44,10.73,3.58l-4.37,4.06c-2.27-1.75-4.37-2.39-6.03-2.39-2.77,0-3.41,1.1-3.41,1.79,0,1.39,1.51,1.66,3.83,2.08,4.84,.87,10.45,2.16,10.45,7.87s-5.71,8.43-11.38,8.43c-6.68,0-10.14-3.23-11.66-4.65l4.47-4.06Z"/><path class="cls-2" d="M568.66,26.45c-.84,1.24-1.67,2.44-2.91,3.59-2.07,1.94-5.2,3.41-9.07,3.41-7.15,0-12.17-4.57-12.17-12.44,0-5.8,2.86-13.26,12.34-13.26,1.44,0,5.58,.12,8.66,3.45,3.14,3.35,3.33,8.05,3.41,10.77h-17.18c-.05,3,1.66,5.99,5.48,5.99s5.2-2.53,6.08-4.24l5.35,2.72Zm-7.05-8.9c-.13-1.01-.32-2.34-1.34-3.41-.88-.86-2.21-1.33-3.45-1.33-1.71,0-2.9,.83-3.59,1.57-.96,1.06-1.19,2.16-1.43,3.17h9.81Z"/><path class="cls-2" d="M573.91,1.57h7.05v7.51h4.65v4.34h-4.7v10.82c-.05,1.47-.05,2.72,1.84,2.72l2.53-.08v5.52c-1.52,.23-2.44,.38-3.73,.38-2.45,0-5.12-.15-6.64-2.35-.96-1.43-1.01-3.13-1.01-5.45V13.36h-3.51v-4.34h3.51V1.57Z"/><path class="cls-2" d="M588.37,1.57h7.05v7.51h4.64v4.34h-4.7v10.82c-.04,1.47-.04,2.72,1.85,2.72l2.53-.08v5.52c-1.52,.23-2.44,.38-3.73,.38-2.45,0-5.12-.15-6.64-2.35-.96-1.43-1.01-3.13-1.01-5.45V13.36h-3.5v-4.34h3.5V1.57Z"/><path class="cls-2" d="M605.05,24.47c1.94,1.89,4.33,3.31,7.01,3.31,1.69,0,4.28-.55,4.28-2.34,0-.84-.51-1.16-.93-1.39-1.06-.55-2.7-.68-4.09-.93-1.06-.18-2.17-.4-3.23-.72-1.47-.43-2.95-1.02-4-2.08-1.07-1.06-1.8-2.72-1.8-4.51,0-3.97,3.41-8.07,10.14-8.07,5.67,0,9.08,2.44,10.73,3.58l-4.39,4.06c-2.25-1.75-4.37-2.39-6.03-2.39-2.77,0-3.41,1.1-3.41,1.79,0,1.39,1.52,1.66,3.83,2.08,4.84,.87,10.47,2.16,10.47,7.87s-5.73,8.43-11.38,8.43c-6.69,0-10.14-3.23-11.66-4.65l4.47-4.06Z"/><rect class="cls-2" x="300.39" y="55.33" width="8.1" height="32.53"/><path class="cls-2" d="M322.08,65.98c.69-.73,1.15-1.29,2.4-1.89,1.1-.46,2.67-.88,4.36-.88,1.44,0,3.05,.28,4.29,.97,2.53,1.33,3.18,3.5,3.18,7.23v16.45h-7.04v-13.55c0-2.17-.05-2.95-.33-3.59-.55-1.29-1.79-1.84-3.18-1.84-3.73,0-3.73,3-3.73,5.98v13h-7.09v-24h7.14v2.12Z"/><path class="cls-2" d="M343.91,79.76c1.94,1.88,4.33,3.31,7.01,3.31,1.69,0,4.29-.55,4.29-2.35,0-.83-.52-1.16-.94-1.38-1.06-.55-2.72-.69-4.09-.93-1.06-.18-2.17-.41-3.22-.73-1.49-.41-2.96-1.02-4.01-2.08-1.06-1.05-1.8-2.72-1.8-4.51,0-3.96,3.41-8.07,10.14-8.07,5.67,0,9.08,2.45,10.73,3.59l-4.37,4.06c-2.27-1.75-4.39-2.4-6.04-2.4-2.77,0-3.41,1.11-3.41,1.8,0,1.38,1.52,1.66,3.83,2.06,4.84,.89,10.45,2.17,10.45,7.88s-5.7,8.43-11.37,8.43c-6.69,0-10.14-3.22-11.66-4.64l4.47-4.06Z"/><path class="cls-2" d="M367.55,56.86h7.05v7.51h4.64v4.34h-4.69v10.82c-.05,1.47-.05,2.72,1.84,2.72l2.53-.08v5.52c-1.52,.24-2.45,.38-3.73,.38-2.45,0-5.12-.13-6.64-2.35-.96-1.43-1.01-3.14-1.01-5.43v-11.61h-3.5v-4.33h3.5v-7.47Z"/><path class="cls-2" d="M383.07,55.28h7.01v5.48h-7.01v-5.48Zm0,8.48h7.01v24.1h-7.01v-24.1Z"/><path class="cls-2" d="M397.31,56.86h7.05v7.51h4.64v4.34h-4.69v10.82c-.05,1.47-.05,2.72,1.84,2.72l2.53-.08v5.52c-1.51,.24-2.44,.38-3.73,.38-2.45,0-5.12-.13-6.64-2.35-.96-1.43-1.01-3.14-1.01-5.43v-11.61h-3.5v-4.33h3.5v-7.47Z"/><path class="cls-2" d="M427.12,63.81h7.09v24.05h-7.09v-2.3c-.69,.78-1.11,1.24-2.4,1.88-1.43,.76-2.99,1.11-4.56,1.11s-4.47-.22-6.13-2.53c-1.24-1.74-1.47-3.17-1.47-7.09v-15.11h7.14v14.93c0,1.06,0,2.12,.55,2.85,.43,.56,1.39,1.22,2.81,1.22,.41,0,1.39,0,2.45-.62,1.51-.91,1.56-2.11,1.61-3.4v-14.97Z"/><path class="cls-2" d="M441.44,56.86h7.04v7.51h4.65v4.34h-4.69v10.82c-.05,1.47-.05,2.72,1.84,2.72l2.52-.08v5.52c-1.51,.24-2.44,.38-3.72,.38-2.45,0-5.12-.13-6.64-2.35-.96-1.43-1.01-3.14-1.01-5.43v-11.61h-3.51v-4.33h3.51v-7.47Z"/><path class="cls-2" d="M479.35,81.75c-.83,1.23-1.66,2.44-2.9,3.58-2.07,1.94-5.2,3.4-9.08,3.4-7.14,0-12.16-4.54-12.16-12.43,0-5.81,2.86-13.28,12.36-13.28,1.43,0,5.57,.15,8.66,3.46,3.12,3.37,3.31,8.07,3.4,10.78h-17.18c-.05,3,1.66,5.99,5.48,5.99s5.2-2.55,6.08-4.24l5.34,2.73Zm-7.04-8.91c-.13-1.01-.32-2.35-1.33-3.41-.89-.88-2.22-1.33-3.46-1.33-1.71,0-2.9,.83-3.59,1.56-.96,1.06-1.19,2.17-1.43,3.18h9.81Z"/><path class="cls-2" d="M520.41,75.78c0,6.09-3.51,12.77-12.9,12.77-6.77,0-12.95-3.87-12.95-12.77,0-7.37,4.65-13.22,13.88-12.71,9.81,.56,11.98,8.33,11.98,12.71m-17.51-4.74c-.88,1.39-1.19,3.05-1.19,4.7,0,3.81,1.84,7.18,5.8,7.18s5.71-3.08,5.71-6.85c0-2.68-.65-4.75-1.99-6.04-1.46-1.39-3.13-1.43-4.14-1.34-2.02,.15-3.23,.83-4.19,2.35"/><path class="cls-2" d="M526.17,61.42c0-1.19,.1-2.81,1.01-4.09,.88-1.21,2.86-2.45,6.18-2.45,1.43,0,2.85,.23,4.23,.41v5.3h-1.69c-2.67,0-2.81,.55-2.77,3.78h4.74v4.34h-4.69v19.17h-7.05v-19.17h-3.78v-4.34h3.83v-2.95Z"/><polygon class="cls-2" points="292.08 110.58 317.15 110.58 317.15 117.02 308.72 117.02 308.72 143.14 300.56 143.14 300.56 117.02 292.08 117.02 292.08 110.58"/><path class="cls-2" d="M339.51,137.01c-.83,1.26-1.66,2.45-2.91,3.59-2.07,1.94-5.2,3.41-9.07,3.41-7.14,0-12.17-4.56-12.17-12.44,0-5.81,2.86-13.26,12.36-13.26,1.43,0,5.57,.13,8.65,3.45,3.14,3.36,3.33,8.07,3.41,10.77h-17.18c-.05,3,1.66,5.99,5.48,5.99s5.2-2.53,6.08-4.23l5.35,2.7Zm-7.05-8.88c-.13-1.02-.33-2.36-1.33-3.41-.88-.88-2.22-1.34-3.46-1.34-1.71,0-2.9,.83-3.59,1.57-.96,1.06-1.21,2.16-1.43,3.18h9.81Z"/><path class="cls-2" d="M364.89,137.48c-.88,1.39-1.85,2.9-3.78,4.29-1.85,1.29-4.19,2.17-6.92,2.17-4.61,0-11.93-2.77-11.93-12.57,0-7.02,4.06-12.9,12.07-12.9,2.67,0,7.24,.73,10.27,5.75l-5.25,3c-.41-.88-.88-1.71-2.02-2.53-.69-.46-1.57-.83-2.67-.83-3.83,0-5.12,4.37-5.12,7.27,0,3.19,1.56,7.2,5.34,7.2,.38,0,2.12,0,3.59-1.67,.6-.68,.83-1.24,1.06-1.92l5.35,2.75Z"/><path class="cls-2" d="M373.1,110.58v11.05c1.01-1.01,3.09-3.18,6.91-3.18,1.75,0,3.69,.51,5.12,1.71,2.12,1.79,2.49,4.06,2.49,7.19v15.79h-7.04v-12.56c0-1.94-.05-2.86-.33-3.68-.69-2.17-2.57-2.41-3.31-2.41-1.24,0-2.3,.61-2.91,1.39-.91,1.24-.91,3.22-.91,5.3v11.97h-7.09v-32.56h7.09Z"/><path class="cls-2" d="M401.06,121.26c.69-.73,1.16-1.29,2.4-1.89,1.11-.46,2.67-.88,4.37-.88,1.43,0,3.05,.27,4.29,.96,2.53,1.34,3.17,3.51,3.17,7.24v16.44h-7.04v-13.54c0-2.16-.05-2.95-.32-3.59-.56-1.28-1.8-1.85-3.18-1.85-3.73,0-3.73,3.01-3.73,5.99v12.99h-7.1v-23.99h7.14v2.12Z"/><path class="cls-2" d="M445.84,131.07c0,6.09-3.51,12.77-12.9,12.77-6.77,0-12.94-3.86-12.94-12.77,0-7.36,4.64-13.22,13.87-12.71,9.81,.55,11.98,8.35,11.98,12.71m-17.51-4.74c-.88,1.38-1.19,3.05-1.19,4.7,0,3.83,1.84,7.19,5.8,7.19s5.71-3.09,5.71-6.86c0-2.68-.65-4.75-1.99-6.04-1.46-1.38-3.13-1.43-4.14-1.34-2.02,.15-3.23,.83-4.19,2.35"/><rect class="cls-2" x="450.45" y="110.61" width="7.09" height="32.52"/><path class="cls-2" d="M488.09,131.07c0,6.09-3.51,12.77-12.9,12.77-6.77,0-12.94-3.86-12.94-12.77,0-7.36,4.65-13.22,13.85-12.71,9.82,.55,11.99,8.35,11.99,12.71m-17.51-4.74c-.87,1.38-1.21,3.05-1.21,4.7,0,3.83,1.85,7.19,5.81,7.19s5.71-3.09,5.71-6.86c0-2.68-.65-4.75-1.99-6.04-1.47-1.38-3.13-1.43-4.14-1.34-2.02,.15-3.23,.83-4.19,2.35"/><path class="cls-2" d="M507.3,139.97c-1.39,.91-3.08,2.02-6.35,2.02-1.99,0-3.92-.51-5.5-1.56-3.22-2.08-4.47-5.81-4.47-9.95,0-4.84,2.27-11.79,10.23-11.79,3.68,0,5.39,1.61,6.45,2.63v-2.28h6.64v23.14c-.1,2.62-.18,5.71-3.69,7.74-2.44,1.47-6.03,1.85-8.2,1.85-4.8,0-7.92-1.67-9.21-3.01-1.89-1.88-1.85-4.33-1.85-5.62h7.34c.09,1.07,.18,2.58,2.07,3.46,.46,.23,1.15,.46,2.25,.46,4.29,0,4.29-2.55,4.29-4.52v-2.57Zm-8.98-9.54c0,2.02,.13,6.21,4.51,6.21,3.59,0,4.42-2.81,4.42-6.21,0-1.15-.09-3.55-.88-4.7-.55-.88-1.84-1.84-3.86-1.75-3.36,.15-4.19,3.05-4.19,6.46"/><path class="cls-2" d="M540.42,119.09l-8.47,25.99c-.56,1.57-1.06,3.03-2.27,4.37-1.66,1.8-3.28,1.89-5.12,1.94h-5.11v-5.63h2.49c1.16-.04,2.95-.04,2.95-1.74,0-.61-.18-1.21-.33-1.71l-7.18-23.22h7.55l3.96,17.23,3.96-17.23h7.55Z"/><path class="cls-2" d="M196.44,.05h79.49V28.6h-79.49V.05ZM49.15,.05h30.13V97.58h-30.13V.05ZM98.32,.05h30.13V142.78h-30.13V.05ZM0,.05H30.13V142.78H0V.05ZM196.65,45.24h30.13v97.54h-30.13V45.24ZM147.27,.05h30.33V28.6h-30.33V.05Z"/><rect class="cls-1" x="147.53" y="45.11" width="30.13" height="97.54"/></svg>