<?xml version="1.0" encoding="UTF-8" standalone="no"?>
<!DOCTYPE svg PUBLIC "-//W3C//DTD SVG 1.1//EN" "http://www.w3.org/Graphics/SVG/1.1/DTD/svg11.dtd">
<svg width="100%" height="100%" viewBox="0 0 2417 646" version="1.1" xmlns="http://www.w3.org/2000/svg" xmlns:xlink="http://www.w3.org/1999/xlink" xml:space="preserve" xmlns:serif="http://www.serif.com/" style="fill-rule:evenodd;clip-rule:evenodd;stroke-linejoin:round;stroke-miterlimit:2;">
    <g id="Layer-1" serif:id="Layer 1" transform="matrix(4.16667,0,0,4.16667,-66.6667,-89.5833)">
        <g transform="matrix(1,0,0,1,56.9106,107.075)">
            <path d="M0,60.009C0,60.009 2.817,64.804 5.627,66.432C8.441,68.045 13.99,68.086 13.99,68.086L92.613,68.086C92.613,68.086 61.043,67.086 19.193,42.924C-22.661,18.765 -39.3,-8.077 -39.3,-8.077L0,60.009Z" style="fill:rgb(128,130,133);fill-rule:nonzero;"/>
        </g>
        <g transform="matrix(1,0,0,1,188.836,90.914)">
            <path d="M0,16.17C0,16.17 2.739,11.331 2.739,8.09C2.735,4.849 0,0.013 0,0.013L-39.312,-68.075C-39.312,-68.075 -24.396,-40.242 -24.396,8.086C-24.396,56.422 -39.312,84.245 -39.312,84.245L0,16.17Z" style="fill:rgb(35,31,32);fill-rule:nonzero;"/>
        </g>
        <g transform="matrix(1,0,0,1,70.9067,98.9979)">
            <path d="M0,-76.159C0,-76.159 -5.557,-76.118 -8.363,-74.501C-11.176,-72.873 -13.994,-68.082 -13.994,-68.082L-53.298,0C-53.298,0 -36.654,-26.834 5.196,-51C47.046,-75.159 78.616,-76.159 78.616,-76.159L0,-76.159Z" style="fill:rgb(237,27,46);fill-rule:nonzero;"/>
        </g>
        <g transform="matrix(1,0,0,1,247.236,103.765)">
            <path d="M0,-37.814L-32.48,-37.814L-32.48,-30.629L-20.49,-30.629L-20.494,0L-11.99,0L-11.99,-30.629L0,-30.629L0,-37.814Z" style="fill:rgb(237,27,46);fill-rule:nonzero;"/>
        </g>
        <g transform="matrix(1,0,0,1,279.002,78.7909)">
            <path d="M0,12.132C-1.301,15.447 -4.259,17.926 -7.85,18.558C-8.485,18.666 -9.147,18.733 -9.823,18.733C-10.492,18.733 -11.158,18.666 -11.79,18.558C-15.38,17.926 -18.338,15.447 -19.639,12.132C-20.379,10.255 -20.788,8.203 -20.788,6.063C-20.788,3.922 -20.379,1.874 -19.639,-0.007C-18.338,-3.315 -15.38,-5.794 -11.79,-6.429C-11.158,-6.541 -10.492,-6.604 -9.823,-6.604C-9.147,-6.604 -8.485,-6.541 -7.85,-6.429C-4.259,-5.794 -1.301,-3.315 0,-0.007C0.74,1.874 1.145,3.922 1.145,6.063C1.145,8.203 0.74,10.255 0,12.132M-9.823,-13.971C-20.888,-13.971 -29.86,-4.998 -29.86,6.063C-29.86,17.127 -20.888,26.103 -9.823,26.103C1.241,26.103 10.217,17.127 10.217,6.063C10.217,-4.998 1.241,-13.971 -9.823,-13.971" style="fill:rgb(237,27,46);fill-rule:nonzero;"/>
        </g>
        <g transform="matrix(1,0,0,1,289.357,103.761)">
            <path d="M0,-37.81L10.013,-37.81L19.372,-21.549L28.727,-37.81L38.739,-37.81L23.62,-13.989L23.62,0L15.12,0L15.12,-13.989L0,-37.81Z" style="fill:rgb(237,27,46);fill-rule:nonzero;"/>
        </g>
        <g transform="matrix(1,0,0,1,348.299,72.1869)">
            <path d="M0,25.34C0.669,25.34 1.334,25.274 1.97,25.166C5.56,24.53 8.522,22.051 9.823,18.739C10.566,16.859 10.968,14.811 10.968,12.67C10.968,10.529 10.566,8.478 9.823,6.597C8.522,3.289 5.56,0.81 1.97,0.174C1.334,0.067 0.669,0.004 0,0.004C-0.673,0.004 -1.327,0.067 -1.967,0.174C-5.561,0.81 -8.522,3.289 -9.823,6.597C-10.556,8.478 -10.969,10.529 -10.969,12.67C-10.969,14.811 -10.556,16.859 -9.823,18.739C-8.522,22.051 -5.561,24.53 -1.967,25.166C-1.327,25.274 -0.673,25.34 0,25.34M-20.037,12.67C-20.037,1.605 -11.072,-7.367 0,-7.367C11.064,-7.367 20.04,1.605 20.04,12.67C20.04,23.738 11.064,32.707 0,32.707C-11.072,32.707 -20.037,23.738 -20.037,12.67" style="fill:rgb(237,27,46);fill-rule:nonzero;"/>
        </g>
        <g transform="matrix(1,0,0,1,426.356,80.8664)">
            <path d="M0,7.928L-5.567,-7.006L-11.143,7.928L0,7.928ZM2.476,14.547L-13.617,14.547L-16.718,22.869L-26.173,22.869L-10.863,-14.941L-0.278,-14.941L15.038,22.869L5.583,22.869L2.476,14.547Z" style="fill:rgb(237,27,46);fill-rule:nonzero;"/>
        </g>
        <g transform="matrix(1,0,0,1,402.681,103.765)">
            <path d="M0,-37.814L-32.487,-37.814L-32.487,-30.629L-20.497,-30.629L-20.497,0L-11.99,0L-11.993,-30.629L0,-30.629L0,-37.814Z" style="fill:rgb(237,27,46);fill-rule:nonzero;"/>
        </g>
        <g transform="matrix(1,0,0,1,474.261,134.834)">
            <path d="M0,-13.815L7.069,-13.815L7.069,4.237L12.09,4.237L12.079,-13.815L19.152,-13.815L19.152,-18.052L0,-18.052L0,-13.815Z" style="fill:rgb(128,130,133);fill-rule:nonzero;"/>
        </g>
        <g transform="matrix(1,0,0,1,506.353,134.834)">
            <path d="M0,-13.815L7.065,-13.815L7.065,4.237L12.079,4.237L12.079,-13.815L19.145,-13.815L19.145,-18.052L0,-18.052L0,-13.815Z" style="fill:rgb(128,130,133);fill-rule:nonzero;"/>
        </g>
        <g transform="matrix(1,0,0,1,553.022,134.834)">
            <path d="M0,-13.815L7.065,-13.815L7.065,4.237L12.083,4.237L12.083,-13.815L19.148,-13.815L19.148,-18.052L0,-18.052L0,-13.815Z" style="fill:rgb(128,130,133);fill-rule:nonzero;"/>
        </g>
        <g transform="matrix(1,0,0,1,441.721,125.616)">
            <path d="M0,4.621L-9.566,-8.834L-14.584,-8.834L-14.584,13.455L-9.566,13.455L-9.566,0.005L0,13.455L5.014,13.455L5.014,-8.834L0,-8.834L0,4.621Z" style="fill:rgb(128,130,133);fill-rule:nonzero;"/>
        </g>
        <g transform="matrix(1,0,0,1,0,57.861)">
            <rect x="416.868" y="58.925" width="5.018" height="22.289" style="fill:rgb(128,130,133);"/>
        </g>
        <g transform="matrix(1,0,0,1,0,57.861)">
            <rect x="497.372" y="58.925" width="5.018" height="22.289" style="fill:rgb(128,130,133);"/>
        </g>
        <g transform="matrix(1,0,0,1,581.148,121.016)">
            <path d="M0,13.823L0,8.806L11.229,8.806L11.229,4.573L0,4.573L0,0.005L13.02,0.005L13.02,-4.233L-5.014,-4.233L-5.014,18.056L13.243,18.056L13.243,13.823L0,13.823Z" style="fill:rgb(128,130,133);fill-rule:nonzero;"/>
        </g>
        <g transform="matrix(1,0,0,1,544.047,126.746)">
            <path d="M0,3.034C0,6.881 -1.261,8.65 -4.784,8.65C-8.311,8.65 -9.571,6.881 -9.571,3.034L-9.571,-9.964L-14.585,-9.964L-14.585,4.877C-14.585,9.828 -10.284,12.998 -4.784,12.998C0.713,12.998 5.018,9.828 5.018,4.877L5.018,-9.964L0,-9.964L0,3.034Z" style="fill:rgb(128,130,133);fill-rule:nonzero;"/>
        </g>
        <g transform="matrix(1,0,0,1,461.117,130.224)">
            <path d="M0,-4.589C-2.739,-5.031 -3.954,-5.979 -3.954,-7.336C-3.954,-9.042 -2.423,-9.763 0,-9.763C2.412,-9.763 3.951,-9.19 3.951,-6.886L9.292,-6.886C9.292,-11.941 5.196,-14.108 0,-14.108C-5.207,-14.108 -9.303,-11.941 -9.303,-6.886C-9.303,-2.813 -4.924,-1.326 0,-0.516C3.914,0.124 4.62,1.231 4.62,2.298C4.62,4.904 2.408,5.171 0,5.171C-2.423,5.171 -4.623,4.45 -4.623,1.848L-9.976,1.848C-9.976,7.498 -5.207,9.519 0,9.519C5.196,9.519 9.969,7.498 9.969,1.848C9.969,-2.467 4.832,-3.809 0,-4.589" style="fill:rgb(128,130,133);fill-rule:nonzero;"/>
        </g>
        <g transform="matrix(1,0,0,1,243.737,126.034)">
            <path d="M0,3.789L11.228,3.789L11.228,-0.444L0,-0.444L0,-5.016L13.02,-5.016L13.02,-9.25L-5.014,-9.25L-5.014,13.039L13.243,13.039L13.243,8.807L0,8.807L0,3.789Z" style="fill:rgb(35,31,32);fill-rule:nonzero;"/>
        </g>
        <g transform="matrix(1,0,0,1,289.866,126.034)">
            <path d="M0,3.789L11.224,3.789L11.224,-0.444L0,-0.444L0,-5.016L13.016,-5.016L13.016,-9.25L-5.018,-9.25L-5.018,13.039L13.242,13.039L13.242,8.807L0,8.807L0,3.789Z" style="fill:rgb(35,31,32);fill-rule:nonzero;"/>
        </g>
        <g transform="matrix(1,0,0,1,397.259,139.073)">
            <path d="M0,-22.289L0,-13.484L-9.567,-13.484L-9.567,-22.289L-14.581,-22.289L-14.581,0L-9.567,0L-9.567,-9.251L0,-9.251L0,0L5.018,0L5.018,-22.289L0,-22.289Z" style="fill:rgb(35,31,32);fill-rule:nonzero;"/>
        </g>
        <g transform="matrix(1,0,0,1,226.286,130.046)">
            <path d="M0,-4.233L-6.519,-4.233L-6.519,-9.027L0,-9.027C0.818,-9.027 2.379,-8.452 2.379,-6.63C2.379,-4.809 0.818,-4.233 0,-4.233M7.393,-6.63C7.393,-10.733 5.218,-13.261 -0.45,-13.261L-11.533,-13.261L-11.533,9.028L-6.519,9.028L-6.519,0L-2.639,0L2.839,9.028L8.86,9.028L3.111,-0.442C6.151,-1.338 7.393,-3.534 7.393,-6.63" style="fill:rgb(35,31,32);fill-rule:nonzero;"/>
        </g>
        <g transform="matrix(1,0,0,1,344.873,130.046)">
            <path d="M0,-4.233L-6.523,-4.233L-6.523,-9.027L0,-9.027C0.817,-9.027 2.374,-8.452 2.374,-6.63C2.374,-4.809 0.817,-4.233 0,-4.233M7.389,-6.63C7.389,-10.733 5.214,-13.261 -0.45,-13.261L-11.533,-13.261L-11.533,9.028L-6.523,9.028L-6.523,0L-2.64,0L2.835,9.028L8.853,9.028L3.106,-0.442C6.147,-1.338 7.389,-3.534 7.389,-6.63" style="fill:rgb(35,31,32);fill-rule:nonzero;"/>
        </g>
        <g transform="matrix(1,0,0,1,366.439,135.293)">
            <path d="M0,-14.729C0.379,-14.796 0.77,-14.833 1.163,-14.833C1.554,-14.833 1.94,-14.796 2.323,-14.729C4.304,-14.379 5.954,-13.067 6.779,-11.298L12.291,-11.298C10.667,-15.885 6.3,-19.178 1.163,-19.178C-5.363,-19.178 -10.648,-13.885 -10.648,-7.366C-10.648,-0.843 -5.363,4.449 1.163,4.449C6.3,4.449 10.667,1.152 12.291,-3.43L6.779,-3.43C5.958,-1.665 4.308,-0.349 2.323,0C1.94,0.067 1.554,0.104 1.163,0.104C0.77,0.104 0.379,0.067 0,0C-2.115,-0.368 -3.861,-1.832 -4.628,-3.787C-5.059,-4.895 -5.304,-6.103 -5.304,-7.366C-5.304,-8.626 -5.059,-9.834 -4.628,-10.941C-3.861,-12.893 -2.115,-14.357 0,-14.729" style="fill:rgb(35,31,32);fill-rule:nonzero;"/>
        </g>
        <g transform="matrix(1,0,0,1,270.418,130.224)">
            <path d="M0,-4.589C-2.739,-5.031 -3.951,-5.979 -3.951,-7.336C-3.951,-9.042 -2.416,-9.763 0,-9.763C2.419,-9.763 3.951,-9.19 3.951,-6.886L9.299,-6.886C9.299,-11.941 5.203,-14.108 0,-14.108C-5.207,-14.108 -9.295,-11.941 -9.295,-6.886C-9.295,-2.813 -4.925,-1.326 0,-0.516C3.917,0.124 4.624,1.231 4.624,2.298C4.624,4.904 2.416,5.171 0,5.171C-2.416,5.171 -4.624,4.45 -4.624,1.848L-9.968,1.848C-9.968,7.498 -5.207,9.519 0,9.519C5.203,9.519 9.968,7.498 9.968,1.848C9.968,-2.467 4.835,-3.809 0,-4.589" style="fill:rgb(35,31,32);fill-rule:nonzero;"/>
        </g>
        <g transform="matrix(1,0,0,1,314.648,125.579)">
            <path d="M0,4.672L3.286,-4.133L6.567,4.672L0,4.672ZM6.396,-8.805L0.16,-8.805L-8.864,13.477L-3.293,13.477L-1.468,8.575L8.024,8.575L9.854,13.477L15.428,13.477L6.396,-8.805Z" style="fill:rgb(35,31,32);fill-rule:nonzero;"/>
        </g>
    </g>
</svg>
